# This file uses centimeters as units for non-parametric coordinates.

mtllib InsideCornerHP.mtl
g default
v 0.000040 0.530817 -2.999996
v 0.000041 0.000006 -2.999996
v 0.999993 0.999993 -0.000007
v 0.497960 0.999991 -0.000005
v 0.999993 0.000007 -0.000007
v 0.497959 0.000005 -0.000005
v 0.000006 0.530817 -0.000007
v 0.000007 0.000007 -0.000007
v 0.999995 0.000005 -2.002919
v 0.497959 0.000000 -2.504955
v 0.999995 0.999995 -2.002919
v 0.002919 0.000005 -2.999995
v 0.002919 0.533562 -2.999995
v 0.497960 0.999997 -2.504954
v 2.999993 0.000007 -2.000007
v 2.999995 0.000005 -2.502041
v 2.999993 0.999993 -2.000007
v 2.999995 0.999991 -2.502040
v 2.999993 0.000007 -2.999993
v 2.999993 0.530817 -2.999995
v 1.002792 0.999995 -2.000005
v 0.499400 0.999997 -2.502040
v 1.002792 0.000005 -2.000005
v 0.499399 0.000000 -2.502041
vt 0.910326 0.491726
vt 0.629359 0.165635
vt 0.630176 0.492429
vt 0.357222 0.243772
vt 0.712088 0.492225
vt 0.711069 0.083519
vt 0.245240 0.246458
vt 0.466199 0.166039
vt 0.357222 0.021018
vt 0.245241 0.020309
vt 0.990555 0.082820
vt 0.245238 0.021018
vt 0.235123 0.257875
vt 0.908816 0.002363
vt 0.910326 0.491732
vt 0.821843 0.002472
vt 0.823717 0.491948
vt 0.822499 0.002469
vt 0.133885 0.021018
vt 0.823719 0.491947
vt 0.466609 0.329220
vt 0.465795 0.003357
vt 0.010029 0.260117
vt 0.383884 0.003561
vt 0.384900 0.411557
vt 0.990353 0.002051
vt 0.123368 0.259301
vt 0.629770 0.328816
vt 0.012279 0.485868
vt 0.125682 0.491487
vt 0.711887 0.410745
vt 0.125617 0.484736
vt 0.909108 0.002253
vt 0.236974 0.377700
vt 0.822499 0.002469
vt 0.467015 0.492835
vt 0.385103 0.493039
vt 0.687321 0.083577
vt 0.466202 0.166041
vt 0.630174 0.492430
vt 0.711071 0.083517
vt 0.133885 0.140022
vt 0.629362 0.165634
vt 0.237252 0.377521
vt 0.529085 0.190396
vt 0.235780 0.257867
vt 0.572354 0.130063
vt 0.991573 0.491530
vt 0.628956 0.002951
vt 0.710868 0.002748
vt 0.711884 0.410743
vt 0.235780 0.257867
vt 0.688134 0.410804
vt 0.466606 0.329221
vt 0.629766 0.328814
vt 0.465797 0.003357
vt 0.823718 0.491958
vt 0.710870 0.002747
vn 0.000004 -0.000000 1.000000
vn 0.000004 -0.000000 1.000000
vn 0.000004 -0.000000 1.000000
vn 0.000004 -0.000000 1.000000
vn 0.870659 -0.491887 0.000002
vn -0.000002 -1.000000 0.000001
vn -0.000005 -1.000000 0.000001
vn 0.762904 -0.646512 0.000002
vn -1.000000 -0.000002 -0.000012
vn -1.000000 -0.000002 -0.000012
vn -1.000000 -0.000002 -0.000012
vn -1.000000 -0.000002 -0.000012
vn 0.762902 0.646514 0.000002
vn 0.870659 0.491888 0.000002
vn -0.458726 0.888578 0.000001
vn -0.588466 0.808522 0.000001
vn -0.685777 0.727812 -0.000261
vn -0.685776 0.727811 -0.001206
vn -0.685777 0.727812 0.000001
vn -0.000004 0.000000 1.000000
vn -0.000004 0.000000 1.000000
vn -0.000004 0.000000 1.000000
vn -0.000004 0.000000 1.000000
vn -0.000008 -1.000000 -0.000743
vn -0.000008 -0.999999 -0.001116
vn -0.000008 -1.000000 0.000001
vn 1.000000 0.000000 0.000003
vn 1.000000 0.000000 0.000003
vn 1.000000 0.000000 0.000003
vn 1.000000 0.000000 0.000003
vn 0.000002 0.492119 0.870528
vn 0.000001 0.888505 -0.458868
vn 0.000001 0.808324 -0.588738
vn 0.000002 0.646962 0.762522
vn 1.000000 0.000000 -0.000003
vn 1.000000 0.000000 -0.000003
vn 1.000000 0.000000 -0.000003
vn 1.000000 0.000000 -0.000003
vn 0.000001 -1.000000 -0.000002
vn 0.000001 -1.000000 -0.000005
vn 0.000001 -0.394439 -0.918922
vn 0.000001 -0.652049 -0.758177
vn 0.000002 -0.492118 0.870529
vn 0.000002 -0.646961 0.762523
vn 0.000001 0.727825 -0.685763
vn 0.000001 0.727825 -0.685763
vn 0.000001 -0.000002 -1.000000
vn 0.000001 -0.000002 -1.000000
s off
g InsideCornerHP
usemtl initialShadingGroup
f 3/4/1 4/7/2 6/10/3 5/9/4
s 1
f 5/36/5 6/37/6 10/38/7 9/8/8
s off
f 2/14/9 8/15/10 7/20/11 1/18/12
s 1
f 5/36/5 9/39/8 11/2/13 3/40/14
f 4/5/15 14/41/16 13/16/17 1/18/18 7/17/19
s off
f 6/12/20 4/7/21 7/42/22 8/19/23
s 1
f 3/3/14 11/43/13 14/6/16 4/5/15
f 1/44/18 13/45/17 12/13/24 2/46/25
f 2/14/25 12/47/24 10/11/7 6/48/6 8/15/26
s off
f 15/23/27 16/27/28 18/30/29 17/29/30
s 2
f 17/49/31 18/50/32 22/51/33 21/28/34
s off
f 18/32/35 16/27/36 19/52/37 20/34/38
s 2
f 16/26/39 24/53/40 2/1/41 19/33/42
f 15/22/43 23/54/44 24/25/40 16/24/39
f 17/49/31 21/55/34 23/21/44 15/56/43
f 20/35/45 1/57/46 22/31/33 18/58/32
f 19/33/42 2/1/41 1/57/47 20/35/48
