# This file uses centimeters as units for non-parametric coordinates.

mtllib OutsideCornerHP.mtl
g default
v -0.991604 0.008174 -3.963069
v -1.000000 0.027915 -3.972085
v -0.991993 0.027625 -3.991825
v -0.972658 0.027342 -4.000000
v -0.963631 0.008005 -3.991634
v -0.942269 0.000000 -3.970981
v -0.962569 0.000000 -3.962389
v -0.970980 0.000000 -3.941649
v -0.502390 0.000000 -3.470498
v -0.522561 0.000000 -3.490568
v -0.514219 0.000000 -3.510690
v -0.494038 0.000000 -3.519024
v -0.473787 0.000000 -3.498874
v -0.453535 0.000000 -3.478724
v -0.473830 0.000000 -3.470437
v -0.482220 0.000000 -3.450428
v -0.991592 0.991826 -3.963080
v -0.970980 1.000000 -3.941648
v -0.962260 1.000000 -3.962011
v -0.941213 1.000000 -3.970449
v -0.962919 0.991828 -3.991464
v -0.972084 0.972084 -3.999999
v -0.991824 0.972086 -3.991823
v -1.000000 0.972085 -3.972084
v -0.504394 0.996241 -3.472193
v -0.486553 0.985209 -3.456376
v -0.477904 0.984729 -3.474567
v -0.456977 0.984225 -3.482101
v -0.474287 0.995970 -3.500365
v -0.493403 1.000000 -3.520549
v -0.515103 1.000000 -3.511586
v -0.524072 1.000000 -3.489944
v 2.991656 0.971512 -3.991656
v 2.971511 0.971511 -4.000000
v 2.971510 0.991656 -3.991656
v 2.971511 1.000000 -3.971511
v 2.991656 0.991656 -3.971513
v 3.000000 0.971511 -3.971511
v 3.000000 0.962902 -3.497957
v 3.000000 0.971372 -3.518203
v 2.991688 0.991621 -3.518887
v 2.971602 1.000000 -3.519571
v 2.971696 0.996185 -3.499516
v 2.971777 0.985277 -3.482341
v 2.991804 0.972422 -3.480181
v 3.000000 0.941250 -3.477598
v 2.971511 0.008344 -3.991656
v 2.971511 0.028489 -4.000000
v 2.991656 0.028491 -3.991656
v 3.000000 0.028489 -3.971511
v 2.991656 0.008344 -3.971512
v 2.971511 0.000000 -3.971511
v 2.971511 0.000000 -3.497967
v 2.971511 0.000000 -3.518111
v 2.991656 0.008344 -3.518106
v 3.000000 0.028489 -3.518104
v 3.000000 0.028489 -3.497959
v 3.000000 0.028489 -3.477814
v 2.991656 0.008344 -3.477818
v 2.971511 0.000000 -3.477822
v -0.008471 0.008260 -2.979984
v -0.028778 0.000000 -2.999898
v -0.020380 0.000000 -3.020504
v -0.000103 0.000000 -3.029036
v 0.020009 0.008262 -3.008584
v 0.028205 0.028205 -3.000000
v 0.008261 0.028201 -2.991740
v 0.000000 0.028199 -2.971801
v -0.004478 0.529328 -2.976327
v 0.000000 0.509262 -2.972038
v 0.008035 0.509478 -2.991811
v 0.027435 0.509684 -3.000000
v 0.023315 0.529585 -3.004522
v 0.011592 0.546494 -3.016668
v -0.008435 0.546469 -3.008369
v -0.016728 0.546440 -2.988330
v 2.991903 0.538559 -3.021769
v 2.971118 0.546073 -3.016190
v 2.970909 0.528918 -3.004220
v 2.970726 0.508272 -3.000000
v 2.991768 0.509491 -3.009280
v 3.000000 0.519057 -3.027243
v 2.991656 0.008344 -3.028503
v 3.000000 0.028489 -3.028489
v 2.991656 0.028490 -3.008344
v 2.971511 0.028489 -3.000000
v 2.971520 0.008344 -3.008344
v 2.971511 0.000000 -3.028489
v -0.991656 0.008344 -0.028489
v -0.971511 0.000000 -0.028489
v -0.971512 0.008344 -0.008344
v -0.971511 0.028489 0.000000
v -0.991656 0.028490 -0.008344
v -1.000000 0.028489 -0.028489
v -0.497995 0.000000 -0.028489
v -0.477850 0.000000 -0.028489
v -0.477826 0.008344 -0.008344
v -0.477814 0.028489 0.000000
v -0.497959 0.028489 0.000000
v -0.518104 0.028489 0.000000
v -0.518115 0.008344 -0.008344
v -0.518140 0.000000 -0.028489
v -0.991656 0.991656 -0.028492
v -1.000000 0.971511 -0.028489
v -0.991656 0.971510 -0.008344
v -0.971511 0.971511 0.000000
v -0.971512 0.991656 -0.008344
v -0.971511 1.000000 -0.028489
v -0.499527 0.996185 -0.028262
v -0.519529 1.000000 -0.028306
v -0.518813 0.991659 -0.008284
v -0.518110 0.971502 0.000000
v -0.497925 0.962987 0.000000
v -0.477599 0.941238 0.000000
v -0.480187 0.972416 -0.008197
v -0.482369 0.985277 -0.028233
v -0.028504 0.008344 -0.008344
v -0.028489 0.000000 -0.028489
v -0.008344 0.008344 -0.028484
v 0.000000 0.028489 -0.028489
v -0.008344 0.028490 -0.008344
v -0.028489 0.028489 0.000000
v -0.021769 0.538559 -0.008097
v -0.027243 0.519057 0.000000
v -0.009295 0.509664 -0.008097
v 0.000000 0.508575 -0.028882
v -0.004220 0.528997 -0.028891
v -0.016190 0.546073 -0.028882
v -0.983385 0.008090 -3.983244
v -0.494025 0.000000 -3.490563
v -0.983180 0.991826 -3.983119
v -0.495511 0.996104 -3.492029
v 2.987953 0.987954 -3.987954
v 2.991724 0.986476 -3.498693
v 2.987953 0.012047 -3.987953
v 2.991656 0.008344 -3.497962
v -0.000112 0.008260 -3.000201
v 0.003672 0.529428 -2.996246
v 2.988079 0.526575 -3.009655
v 2.987954 0.012048 -3.012041
v -0.987953 0.012047 -0.012047
v -0.497970 0.008344 -0.008344
v -0.987954 0.987953 -0.012048
v -0.498673 0.986500 -0.008261
v -0.012041 0.012048 -0.012048
v -0.009664 0.526644 -0.011827
vt 0.357511 0.451073
vt 0.429691 0.509507
vt 0.420999 0.509689
vt 0.351234 0.509628
vt 0.955950 0.578657
vt 0.490260 0.451073
vt 0.530592 0.008031
vt 0.768734 0.984339
vt 0.584977 0.064135
vt 0.589548 0.068309
vt 0.699560 0.926533
vt 0.429868 0.965290
vt 0.768891 0.517496
vt 0.704987 0.517485
vt 0.699719 0.517464
vt 0.351229 0.964822
vt 0.203916 0.786516
vt 0.132977 0.786516
vt 0.126665 0.786537
vt 0.897718 0.578718
vt 0.897653 0.960986
vt 0.890298 0.579138
vt 0.646731 0.126451
vt 0.633685 0.517543
vt 0.827833 0.579039
vt 0.056185 0.786544
vt 0.828017 0.960884
vt 0.890261 0.960986
vt 0.349576 0.035654
vt 0.285832 0.035654
vt 0.490180 0.035224
vt 0.189811 0.080461
vt 0.815823 0.061552
vt 0.763757 0.061552
vt 0.189895 0.148292
vt 0.581876 0.490491
vt 0.059410 0.080461
vt 0.059411 0.142784
vt 0.643667 0.490951
vt 0.063682 0.148321
vt 0.123950 0.209525
vt 0.757155 0.061552
vt 0.701529 0.061597
vt 0.705001 0.930880
vt 0.203916 0.933861
vt 0.132992 0.933839
vt 0.421088 0.964822
vt 0.575255 0.509574
vt 0.575167 0.965290
vt 0.633748 0.870599
vt 0.126631 0.929154
vt 0.055990 0.863671
vt 0.955947 0.960986
vt 0.189811 0.142785
vt 0.526391 0.489992
vt 0.349469 0.450946
vt 0.285856 0.451001
vt 0.757189 0.402584
vt 0.701449 0.402612
vt 0.357592 0.035224
vt 0.189923 0.209355
vt 0.586440 0.490539
vt 0.815837 0.403028
vt 0.763765 0.402999
vt 0.353571 0.451638
vt 0.429056 0.506348
vt 0.356851 0.454017
vt 0.425467 0.508924
vt 0.350485 0.454017
vt 0.422080 0.506348
vt 0.283000 0.451386
vt 0.818153 0.403684
vt 0.351296 0.506348
vt 0.285893 0.454017
vt 0.958559 0.577920
vt 0.348125 0.509246
vt 0.815793 0.405852
vt 0.955917 0.575479
vt 0.527068 0.003508
vt 0.494185 0.451710
vt 0.769765 0.988714
vt 0.529782 0.003580
vt 0.579556 0.508897
vt 0.772920 0.988722
vt 0.490887 0.454017
vt 0.575942 0.506348
vt 0.587208 0.066338
vt 0.699655 0.930021
vt 0.589618 0.065058
vt 0.702362 0.928609
vt 0.585203 0.060548
vt 0.704794 0.934351
vt 0.576837 0.968582
vt 0.208373 0.935554
vt 0.772920 0.516170
vt 0.579556 0.966575
vt 0.205611 0.938312
vt 0.770424 0.514097
vt 0.129824 0.932588
vt 0.704947 0.514097
vt 0.133160 0.938312
vt 0.702349 0.517471
vt 0.127123 0.935795
vt 0.699492 0.514097
vt 0.425481 0.965063
vt 0.208373 0.784823
vt 0.428198 0.968582
vt 0.422759 0.968582
vt 0.205612 0.782064
vt 0.348125 0.965694
vt 0.958559 0.962250
vt 0.133049 0.782064
vt 0.351300 0.968582
vt 0.129821 0.786506
vt 0.955886 0.964682
vt 0.126592 0.782064
vt 0.760463 0.402138
vt 0.896723 0.575479
vt 0.762927 0.405852
vt 0.893986 0.579672
vt 0.757737 0.405852
vt 0.890913 0.575479
vt 0.698952 0.403347
vt 0.648772 0.127693
vt 0.827831 0.575479
vt 0.701398 0.405852
vt 0.631391 0.869427
vt 0.825092 0.578257
vt 0.647046 0.123259
vt 0.633408 0.873696
vt 0.633225 0.514097
vt 0.053747 0.867430
vt 0.825092 0.962315
vt 0.631391 0.516273
vt 0.051717 0.862709
vt 0.827426 0.964682
vt 0.054489 0.782064
vt 0.896250 0.964682
vt 0.891653 0.964682
vt 0.051717 0.784857
vt 0.893963 0.960992
vt 0.353584 0.035435
vt 0.193750 0.078971
vt 0.351104 0.032220
vt 0.356068 0.032220
vt 0.191309 0.076545
vt 0.818153 0.060425
vt 0.283000 0.034859
vt 0.193750 0.148355
vt 0.815765 0.058251
vt 0.189870 0.145539
vt 0.285897 0.032220
vt 0.193750 0.142722
vt 0.494185 0.034052
vt 0.522882 0.491332
vt 0.057912 0.076545
vt 0.491703 0.032220
vt 0.525030 0.493490
vt 0.055471 0.078972
vt 0.584154 0.490519
vt 0.055471 0.142631
vt 0.581883 0.493978
vt 0.060588 0.145539
vt 0.586609 0.494018
vt 0.057787 0.147895
vt 0.762504 0.058251
vt 0.193750 0.210825
vt 0.760455 0.061544
vt 0.191365 0.213227
vt 0.758399 0.058251
vt 0.120704 0.211475
vt 0.644042 0.494511
vt 0.701025 0.058251
vt 0.124842 0.213227
vt 0.645643 0.492290
vt 0.698952 0.060353
vt 0.425478 0.506348
vt 0.353586 0.454017
vt 0.348125 0.506348
vt 0.958559 0.575479
vt 0.818153 0.405852
vt 0.283000 0.454017
vt 0.772920 0.991354
vt 0.579556 0.506348
vt 0.494185 0.454017
vt 0.527091 0.000813
vt 0.701932 0.931957
vt 0.587644 0.063057
vt 0.579556 0.968582
vt 0.772920 0.514097
vt 0.208373 0.938312
vt 0.701932 0.514097
vt 0.129825 0.938312
vt 0.425478 0.968582
vt 0.208373 0.782064
vt 0.129825 0.782064
vt 0.958559 0.964682
vt 0.348125 0.968582
vt 0.893957 0.575479
vt 0.760456 0.405852
vt 0.825092 0.575479
vt 0.631391 0.871981
vt 0.648795 0.125031
vt 0.698952 0.405852
vt 0.631391 0.514097
vt 0.825092 0.964682
vt 0.051717 0.865538
vt 0.051717 0.782064
vt 0.893957 0.964682
vt 0.353586 0.032220
vt 0.193750 0.076545
vt 0.193750 0.145554
vt 0.283000 0.032220
vt 0.818153 0.058251
vt 0.494185 0.032220
vt 0.055471 0.076545
vt 0.522863 0.493471
vt 0.055471 0.145554
vt 0.584494 0.494000
vt 0.760456 0.058251
vt 0.193750 0.213227
vt 0.122438 0.213227
vt 0.698952 0.058251
vt 0.645624 0.494525
vn -0.999976 -0.006553 -0.002076
vn -0.921865 -0.387509 -0.001234
vn -0.922150 -0.386829 0.001344
vn -0.999960 -0.008660 0.002090
vn -0.373689 -0.927552 -0.001873
vn -0.050118 -0.998743 -0.000052
vn -0.018563 -0.999825 0.002222
vn -0.375390 -0.926866 0.001289
vn -0.002065 -0.006508 -0.999977
vn -0.386025 0.000153 -0.922489
vn -0.385925 0.010669 -0.922469
vn -0.002080 0.006579 -0.999976
vn -0.925281 -0.010299 -0.379141
vn -0.999976 0.006563 -0.002060
vn -0.925185 0.010381 -0.379375
vn -0.000052 -0.998798 -0.049025
vn -0.001908 -0.928984 -0.370115
vn 0.001312 -0.928280 -0.371879
vn 0.002213 -0.999830 -0.018294
vn -0.001236 -0.390286 -0.920693
vn 0.002090 -0.008643 -0.999961
vn 0.001396 -0.389576 -0.920993
vn -0.014061 -0.999811 -0.013453
vn 0.000000 -1.000000 0.000000
vn 0.000000 -1.000000 0.000000
vn 0.000000 -1.000000 0.000000
vn 0.000000 -1.000000 0.000000
vn 0.000000 -0.999997 0.002410
vn 0.000000 -0.999997 0.002272
vn 0.000000 -1.000000 0.000000
vn 0.000000 -0.999997 0.002572
vn 0.000000 -1.000000 0.000000
vn 0.000000 -1.000000 0.000000
vn 0.002408 -0.999997 0.000000
vn 0.002583 -0.999997 0.000000
vn 0.002260 -0.999997 0.000000
vn 0.000000 -1.000000 0.000000
vn 0.005434 -0.999971 0.005401
vn 0.006015 -0.999982 0.000039
vn 0.000038 -0.999982 0.006002
vn -0.050383 0.998730 -0.000056
vn -0.373728 0.927536 -0.001959
vn -0.375495 0.926824 0.001289
vn -0.018618 0.999824 0.002222
vn -0.921758 0.387763 -0.001286
vn -0.999960 0.008666 0.002090
vn -0.922051 0.387066 0.001342
vn -0.000058 0.998766 -0.049662
vn -0.013351 0.999817 -0.013680
vn 0.002536 0.999994 0.002540
vn 0.000016 0.999996 0.002833
vn 0.002806 0.999996 0.000012
vn -0.001284 0.390232 -0.920716
vn 0.001326 0.389527 -0.921014
vn 0.002088 0.008729 -0.999960
vn -0.001932 0.928812 -0.370545
vn 0.002217 0.999826 -0.018541
vn 0.001247 0.928118 -0.372284
vn 0.671948 0.740593 0.002719
vn 0.291584 0.956545 0.000566
vn 0.367752 0.929922 0.001976
vn 0.679567 0.733612 0.001457
vn 0.007607 0.999968 0.002309
vn 0.003260 0.739523 0.673124
vn 0.386146 0.838044 0.385452
vn 0.386476 0.831408 0.399246
vn 0.000931 0.726671 0.686986
vn 0.685799 0.727791 0.000572
vn 0.000891 0.955787 0.294060
vn 0.002286 0.927454 0.373931
vn 0.002307 0.999967 0.007852
vn 0.001842 0.732438 0.680831
vn 0.382064 0.005379 -0.924120
vn 0.382065 -0.005378 -0.924120
vn 0.924119 0.005379 -0.382067
vn 0.999811 0.008517 -0.017499
vn 0.999810 -0.008538 -0.017496
vn 0.924119 -0.005377 -0.382068
vn 0.924923 0.379997 -0.010953
vn 0.924847 0.380314 0.004494
vn 0.999963 0.008656 0.000156
vn 0.382553 0.923867 -0.011053
vn 0.384817 0.922944 0.009509
vn 0.999912 0.010792 0.007711
vn 0.999962 -0.008738 0.000000
vn 0.999962 -0.008665 0.000000
vn 0.999325 0.026759 0.025187
vn 0.999935 -0.011391 0.000000
vn 0.921839 0.282640 0.265194
vn 0.921534 0.280346 0.268664
vn 0.999918 0.005664 0.011523
vn 0.387573 0.671883 0.631158
vn 0.002619 0.724149 0.689639
vn 0.386989 0.667665 0.635974
vn 0.381435 -0.924330 -0.011002
vn 0.382685 -0.923879 0.000000
vn 0.924332 -0.381432 -0.011001
vn 0.923880 -0.382683 0.000000
vn 0.382684 -0.923879 0.000000
vn 0.381427 -0.924332 0.011085
vn 0.002558 -0.999862 0.016395
vn 0.923884 -0.382673 0.000000
vn 0.999858 -0.011525 0.012330
vn 0.924338 -0.381413 0.011088
vn 0.379235 -0.925300 0.000541
vn 0.379540 -0.925174 0.001715
vn 0.016338 -0.999863 0.002551
vn 0.921581 -0.388167 0.003726
vn 0.999786 -0.020488 0.002715
vn 0.999855 -0.016775 0.002933
vn 0.922241 -0.386611 0.001749
vn 0.002736 -0.020609 0.999784
vn 0.003704 -0.390366 0.920652
vn 0.001730 -0.388793 0.921324
vn 0.002931 -0.016894 0.999853
vn 0.000521 -0.925755 0.378124
vn 0.001687 -0.925625 0.378439
vn 0.924810 -0.024499 0.379641
vn 0.925065 0.012730 0.379596
vn 0.999948 0.009794 0.002747
vn 0.385514 -0.024607 0.922374
vn 0.002748 0.009819 0.999948
vn 0.385715 0.012528 0.922533
vn 0.896572 0.442893 0.002151
vn 0.914954 0.403552 0.002178
vn 0.999958 0.008662 0.003025
vn 0.688518 0.725216 0.002247
vn 0.002184 0.441908 0.897058
vn 0.002226 0.404290 0.914628
vn 0.003026 0.008745 0.999957
vn 0.916132 0.003982 0.400857
vn 0.917712 -0.011028 0.397092
vn 0.392390 0.005972 0.919780
vn 0.391928 -0.008980 0.919952
vn -0.017494 -0.008537 0.999811
vn -0.011001 -0.381432 0.924331
vn 0.000000 -0.382683 0.923880
vn 0.000000 -0.008662 0.999963
vn -0.011002 -0.924331 0.381432
vn 0.000000 -0.923880 0.382683
vn -0.924114 -0.005378 0.382078
vn -0.924114 0.005379 0.382078
vn -0.382078 -0.005378 0.924114
vn -0.017495 0.008501 0.999811
vn -0.382078 0.005379 0.924114
vn -0.000000 -0.011394 0.999935
vn -0.000000 -0.382683 0.923880
vn 0.011090 -0.381424 0.924334
vn 0.012234 -0.011529 0.999859
vn 0.000000 -0.923880 0.382684
vn 0.011086 -0.924333 0.381426
vn 0.000000 -0.008747 0.999962
vn 0.007759 0.010768 0.999912
vn 0.000155 0.008641 0.999963
vn 0.025188 0.026758 0.999325
vn -0.011158 0.923957 0.382333
vn 0.009481 0.923049 0.384565
vn -0.011071 0.380198 0.924839
vn 0.004418 0.380536 0.924756
vn 0.631253 0.671964 0.387278
vn 0.635933 0.667844 0.386748
vn 0.265394 0.282654 0.921777
vn 0.011499 0.005663 0.999918
vn 0.268556 0.280398 0.921550
vn 0.394554 -0.011163 0.918805
vn 0.398200 0.003934 0.917290
vn 0.918967 -0.009223 0.394227
vn 0.918732 0.005795 0.394840
vn -0.190468 -0.964346 -0.183737
vn -0.806939 -0.494228 -0.323401
vn -0.341590 -0.501487 -0.794875
vn -0.341590 -0.501487 -0.794875
vn 0.000000 -1.000000 0.000000
vn -0.801432 0.496012 -0.334184
vn -0.185340 0.964230 -0.189497
vn -0.330841 0.498949 -0.800996
vn 0.170302 0.969860 0.174266
vn 0.887912 0.325278 -0.325278
vn 0.325270 0.325268 -0.887919
vn 0.325237 0.887924 -0.325287
vn 0.926802 0.332764 0.174087
vn 0.397253 0.828298 0.395110
vn 0.325282 -0.887907 -0.325289
vn 0.325296 -0.325261 -0.887912
vn 0.887917 -0.325247 -0.325295
vn 0.382680 -0.923881 0.000000
vn 0.923881 -0.382680 0.000000
vn 0.809688 -0.481803 0.335070
vn 0.196813 -0.960931 0.194620
vn 0.335624 -0.484633 0.807767
vn 0.784412 0.529103 0.323647
vn 0.326110 0.527972 0.784154
vn 0.848673 0.205458 0.487382
vn 0.370269 0.363438 0.854877
vn 0.325431 -0.887939 0.325053
vn 0.887959 -0.325327 0.325102
vn 0.325220 -0.325067 0.888011
vn -0.887920 -0.325260 0.325276
vn -0.325282 -0.887914 0.325269
vn -0.325284 -0.325257 0.887918
vn 0.000000 -0.923880 0.382684
vn 0.000000 -0.382683 0.923880
vn -0.325307 0.887910 0.325256
vn -0.887915 0.325287 0.325263
vn -0.325303 0.325276 0.887904
vn 0.397174 0.827846 0.396137
vn 0.175601 0.333002 0.926431
vn 0.325148 -0.325371 0.887926
vn 0.325100 -0.887929 0.325411
vn 0.887995 -0.325121 0.325209
vn 0.851868 0.367759 0.372925
vn 0.482476 0.208279 0.850786
s 1
g OutsideCornerHP
usemtl initialShadingGroup
f 2/1/1 1/65/2 89/142/3 94/60/4
s 2
f 1/65/5 8/56/6 90/29/7 89/142/8
s 3
f 4/2/9 3/66/10 23/86/11 22/48/12
s 1
f 3/67/13 2/1/1 24/6/14 23/85/15
s 2
f 6/3/16 5/68/17 47/105/18 52/47/19
s 3
f 5/68/20 4/2/9 48/12/21 47/105/22
s 2
f 8/56/6 7/69/23 11/74/24 10/57/25
f 7/70/23 6/3/16 12/4/26 11/73/24
f 10/57/25 9/71/27 95/148/28 102/30/29
f 9/72/27 16/63/30 96/33/31 95/147/28
f 14/5/32 13/75/33 53/111/34 60/53/35
f 13/76/33 12/4/26 54/16/36 53/110/34
f 16/63/30 15/77/37 63/119/38 62/64/39
f 15/78/37 14/5/32 64/20/40 63/118/38
s 7
f 18/7/41 17/79/42 103/155/43 108/55/44
s 1
f 17/80/45 24/6/14 104/31/46 103/154/47
s 7
f 20/8/48 19/81/49 31/92/50 30/44/51
f 19/82/49 18/7/41 32/9/52 31/91/50
s 3
f 22/48/12 21/83/53 35/96/54 34/49/55
s 7
f 21/84/56 20/8/48 36/13/57 35/95/58
f 26/10/59 25/87/60 109/160/61 116/62/62
f 25/87/60 32/9/52 110/36/63 109/160/61
f 28/11/64 27/88/65 75/130/66 74/50/67
f 27/89/65 26/10/59 76/23/68 75/129/66
f 30/44/51 29/90/69 43/102/70 42/14/71
f 29/90/69 28/11/64 44/15/72 43/102/70
s 3
f 34/49/55 33/93/73 49/107/74 48/12/21
s 11
f 33/94/75 38/45/76 50/17/77 49/106/78
f 38/45/76 37/97/79 41/101/80 40/46/81
s 7
f 37/98/82 36/13/57 42/14/71 41/100/83
s 11
f 40/46/81 39/99/84 57/114/85 56/18/86
f 39/99/84 46/51/87 58/19/88 57/114/85
f 46/51/87 45/103/89 77/132/90 82/52/91
s 7
f 45/104/92 44/15/72 78/24/93 77/131/94
s 2
f 52/47/19 51/108/95 55/113/96 54/16/36
s 11
f 51/109/97 50/17/77 56/18/86 55/112/98
s 2
f 60/53/35 59/115/99 83/138/100 88/21/101
s 11
f 59/116/102 58/19/88 84/26/103 83/137/104
s 2
f 62/64/39 61/117/105 119/168/106 118/34/107
s 7
f 61/117/108 68/58/109 120/42/110 119/168/111
f 66/22/112 65/120/113 87/141/114 86/28/115
s 2
f 65/120/116 64/20/40 88/21/101 87/141/117
s 7
f 68/58/109 67/121/118 71/126/119 70/59/120
f 67/122/121 66/22/112 72/25/122 71/125/123
f 70/59/120 69/123/124 127/176/125 126/43/126
f 69/124/124 76/23/68 128/39/127 127/175/125
f 74/50/67 73/127/128 79/134/129 78/24/93
f 73/128/128 72/25/122 80/27/130 79/133/129
s 11
f 82/52/91 81/135/131 85/140/132 84/26/103
s 7
f 81/136/133 80/27/130 86/28/115 85/139/134
s 14
f 92/32/135 91/143/136 101/153/137 100/54/138
s 2
f 91/144/139 90/29/7 102/30/29 101/152/140
s 1
f 94/60/4 93/145/141 105/157/142 104/31/46
s 14
f 93/146/143 92/32/135 106/37/144 105/156/145
f 98/35/146 97/149/147 117/167/148 122/61/149
s 2
f 97/150/150 96/33/31 118/34/107 117/166/151
s 14
f 100/54/138 99/151/152 113/163/153 112/38/154
f 99/151/152 98/35/146 114/40/155 113/163/153
s 7
f 108/55/44 107/158/156 111/162/157 110/36/63
s 14
f 107/159/158 106/37/144 112/38/154 111/161/159
s 7
f 116/62/62 115/164/160 123/172/161 128/39/127
s 14
f 115/165/162 114/40/155 124/41/163 123/171/164
f 122/61/149 121/169/165 125/174/166 124/41/163
s 7
f 121/170/167 120/42/110 126/43/126 125/173/168
f 20/8/48 30/44/51 42/14/71 36/13/57
s 11
f 38/45/76 40/46/81 56/18/86 50/17/77
s 2
f 52/47/19 54/16/36 12/4/26 6/3/16
s 7
f 66/22/112 86/28/115 80/27/130 72/25/122
s 3
f 48/12/21 4/2/9 22/48/12 34/49/55
s 7
f 44/15/72 28/11/64 74/50/67 78/24/93
s 11
f 58/19/88 46/51/87 82/52/91 84/26/103
s 2
f 14/5/32 60/53/35 88/21/101 64/20/40
s 14
f 92/32/135 100/54/138 112/38/154 106/37/144
s 7
f 108/55/44 110/36/63 32/9/52 18/7/41
s 2
f 8/56/6 10/57/25 102/30/29 90/29/7
s 7
f 120/42/110 68/58/109 70/59/120 126/43/126
s 1
f 2/1/1 94/60/4 104/31/46 24/6/14
s 14
f 114/40/155 98/35/146 122/61/149 124/41/163
s 7
f 26/10/59 116/62/62 128/39/127 76/23/68
s 2
f 96/33/31 16/63/30 62/64/39 118/34/107
f 7/69/23 8/56/6 1/65/5 129/178/169
s 1
f 1/65/2 2/1/1 3/67/13 129/178/170
s 3
f 3/66/171 4/2/9 5/68/20 129/177/172
s 2
f 5/68/17 6/3/16 7/70/23 129/177/169
f 15/77/37 16/63/30 9/72/27 130/181/173
f 9/71/27 10/57/25 11/74/24 130/182/173
f 11/73/24 12/4/26 13/76/33 130/179/173
f 13/75/33 14/5/32 15/78/37 130/180/173
s 1
f 23/85/15 24/6/14 17/80/45 131/185/174
s 7
f 17/79/42 18/7/41 19/82/49 131/186/175
f 19/81/49 20/8/48 21/84/56 131/183/175
s 3
f 21/83/53 22/48/12 23/86/11 131/184/176
s 7
f 31/91/50 32/9/52 25/87/60 132/188/177
f 25/87/60 26/10/59 27/89/65 132/188/177
f 27/88/65 28/11/64 29/90/69 132/187/177
f 29/90/69 30/44/51 31/92/50 132/187/177
s 11
f 37/97/79 38/45/76 33/94/75 133/191/178
s 3
f 33/93/73 34/49/55 35/96/54 133/189/179
s 7
f 35/95/58 36/13/57 37/98/82 133/190/180
s 11
f 45/103/89 46/51/87 39/99/84 134/193/181
f 39/99/84 40/46/81 41/101/80 134/193/181
s 7
f 41/100/83 42/14/71 43/102/70 134/192/182
f 43/102/70 44/15/72 45/104/92 134/192/182
s 2
f 51/108/95 52/47/19 47/105/18 135/194/183
s 3
f 47/105/22 48/12/21 49/107/74 135/194/184
s 11
f 49/106/78 50/17/77 51/109/97 135/195/185
s 2
f 59/115/99 60/53/35 53/111/34 136/197/186
f 53/110/34 54/16/36 55/113/96 136/198/186
s 11
f 55/112/98 56/18/86 57/114/85 136/196/187
f 57/114/85 58/19/88 59/116/102 136/196/187
s 7
f 67/121/118 68/58/109 61/117/108 137/200/188
s 2
f 61/117/105 62/64/39 63/119/38 137/200/189
f 63/118/38 64/20/40 65/120/116 137/199/189
s 7
f 65/120/113 66/22/112 67/122/121 137/199/190
f 75/129/66 76/23/68 69/124/124 138/203/191
f 69/123/124 70/59/120 71/126/119 138/204/191
f 71/125/123 72/25/122 73/128/128 138/201/192
f 73/127/128 74/50/67 75/130/66 138/202/192
s 11
f 81/135/131 82/52/91 77/132/90 139/207/193
s 7
f 77/131/94 78/24/93 79/134/129 139/205/194
f 79/133/129 80/27/130 81/136/133 139/206/194
s 2
f 87/141/117 88/21/101 83/138/100 140/209/195
s 11
f 83/137/104 84/26/103 85/140/132 140/208/196
s 7
f 85/139/134 86/28/115 87/141/114 140/209/197
s 1
f 93/145/141 94/60/4 89/142/3 141/210/198
s 2
f 89/142/8 90/29/7 91/144/139 141/210/199
s 14
f 91/143/136 92/32/135 93/146/143 141/211/200
s 2
f 101/152/140 102/30/29 95/148/28 142/213/201
f 95/147/28 96/33/31 97/150/150 142/214/201
s 14
f 97/149/147 98/35/146 99/151/152 142/212/202
f 99/151/152 100/54/138 101/153/137 142/212/202
s 7
f 107/158/156 108/55/44 103/155/43 143/217/203
s 1
f 103/154/47 104/31/46 105/157/142 143/215/204
s 14
f 105/156/145 106/37/144 107/159/158 143/216/205
s 7
f 115/164/160 116/62/62 109/160/61 144/219/206
f 109/160/61 110/36/63 111/162/157 144/219/206
s 14
f 111/161/159 112/38/154 113/163/153 144/218/207
f 113/163/153 114/40/155 115/165/162 144/218/207
f 121/169/165 122/61/149 117/167/148 145/221/208
s 2
f 117/166/151 118/34/107 119/168/106 145/220/209
s 7
f 119/168/111 120/42/110 121/170/167 145/220/210
f 127/175/125 128/39/127 123/172/161 146/224/211
s 14
f 123/171/164 124/41/163 125/174/166 146/222/212
s 7
f 125/173/168 126/43/126 127/176/125 146/223/211
