# This file uses centimeters as units for non-parametric coordinates.

mtllib WallHP.mtl
g default
v -0.991548 0.008452 -0.028857
v -0.971143 0.000000 -0.028857
v -0.971143 0.008452 -0.008452
v -0.971143 0.028857 0.000000
v -0.991548 0.028857 -0.008452
v -1.000000 0.028857 -0.028857
v -0.497959 0.000000 -0.028857
v -0.477554 0.000000 -0.028857
v -0.477555 0.008452 -0.008452
v -0.477554 0.028857 0.000000
v -0.497959 0.028857 0.000000
v -0.518364 0.028857 0.000000
v -0.518364 0.008452 -0.008452
v -0.518364 0.000000 -0.028857
v -0.991548 0.991548 -0.028860
v -1.000000 0.971143 -0.028857
v -0.991548 0.971143 -0.008452
v -0.971143 0.971143 0.000000
v -0.971143 0.991548 -0.008452
v -0.971143 1.000000 -0.028857
v -0.499510 0.996135 -0.028621
v -0.519771 1.000000 -0.028672
v -0.519071 0.991552 -0.008392
v -0.518369 0.971136 0.000000
v -0.497923 0.962514 0.000000
v -0.477335 0.940494 0.000000
v -0.479946 0.972064 -0.008301
v -0.482131 0.985087 -0.028586
v -0.991548 0.971144 -2.991548
v -1.000000 0.971143 -2.971143
v -0.991548 0.991548 -2.971141
v -0.971143 1.000000 -2.971143
v -0.971143 0.991548 -2.991548
v -0.971143 0.971143 -3.000000
v -0.497957 0.962424 -3.000000
v -0.518464 0.971002 -3.000000
v -0.519155 0.991512 -2.991581
v -0.519842 1.000000 -2.971236
v -0.499528 0.996135 -2.971332
v -0.482131 0.985087 -2.971415
v -0.479946 0.972064 -2.991699
v -0.477335 0.940494 -3.000000
v -0.991548 0.008452 -2.971143
v -1.000000 0.028857 -2.971143
v -0.991548 0.028857 -2.991548
v -0.971143 0.028857 -3.000000
v -0.971143 0.008452 -2.991548
v -0.971143 0.000000 -2.971143
v -0.497959 0.000000 -2.971143
v -0.518364 0.000000 -2.971143
v -0.518364 0.008452 -2.991548
v -0.518364 0.028857 -3.000000
v -0.497959 0.028857 -3.000000
v -0.477554 0.028857 -3.000000
v -0.477555 0.008452 -2.991548
v -0.477554 0.000000 -2.971143
v -0.028873 0.008452 -0.008452
v -0.028857 0.000000 -0.028857
v -0.008452 0.008452 -0.028853
v 0.000000 0.028857 -0.028857
v -0.008452 0.028857 -0.008452
v -0.028857 0.028857 0.000000
v -0.022051 0.538660 -0.008202
v -0.027596 0.518905 0.000000
v -0.009416 0.509393 -0.008202
v 0.000000 0.508287 -0.029255
v -0.004275 0.528973 -0.029265
v -0.016399 0.546271 -0.029255
v -0.022051 0.538660 -2.991798
v -0.016399 0.546271 -2.970745
v -0.004274 0.528893 -2.970532
v 0.000000 0.507981 -2.970348
v -0.009400 0.509218 -2.991662
v -0.027596 0.518905 -3.000000
v -0.028873 0.008452 -2.991548
v -0.028857 0.028857 -3.000000
v -0.008452 0.028857 -2.991548
v 0.000000 0.028857 -2.971143
v -0.008452 0.008452 -2.971153
v -0.028857 0.000000 -2.971143
v -0.987798 0.012202 -0.012202
v -0.497959 0.008452 -0.008452
v -0.987798 0.987798 -0.012203
v -0.498671 0.986327 -0.008367
v -0.987798 0.987798 -2.987797
v -0.498699 0.986300 -2.991617
v -0.987798 0.012202 -2.987797
v -0.497959 0.008452 -2.991548
v -0.012197 0.012203 -0.012204
v -0.009790 0.526591 -0.011979
v -0.009781 0.526521 -2.987925
v -0.012197 0.012203 -2.987798
vt 0.461099 0.008076
vt 0.016607 0.266566
vt 0.387224 0.008260
vt 0.987037 0.006767
vt 0.128036 0.265455
vt 0.018728 0.479290
vt 0.120943 0.478270
vt 0.130137 0.471260
vt 0.471711 0.488116
vt 0.634871 0.487710
vt 0.708506 0.487542
vt 0.715625 0.487553
vt 0.388419 0.488324
vt 0.350787 0.027445
vt 0.249791 0.027445
vt 0.240677 0.027476
vt 0.913828 0.006949
vt 0.915023 0.487013
vt 0.230719 0.375072
vt 0.904411 0.006973
vt 0.820030 0.487184
vt 0.826187 0.007232
vt 0.140337 0.027486
vt 0.827432 0.487101
vt 0.905606 0.487036
vt 0.118823 0.265547
vt 0.633676 0.007647
vt 0.707322 0.007434
vt 0.350787 0.237345
vt 0.249814 0.237314
vt 0.462295 0.488140
vt 0.470516 0.008053
vt 0.624259 0.007670
vt 0.625455 0.487734
vt 0.229331 0.264445
vt 0.714429 0.007401
vt 0.818835 0.007250
vt 0.240628 0.230549
vt 0.140055 0.137326
vt 0.988232 0.486830
vt 0.465808 0.008051
vt 0.014065 0.260076
vt 0.462878 0.003363
vt 0.468714 0.003349
vt 0.010068 0.264154
vt 0.990364 0.005670
vt 0.383892 0.007180
vt 0.128079 0.258939
vt 0.986948 0.002059
vt 0.123430 0.265472
vt 0.387290 0.003552
vt 0.118652 0.259033
vt 0.628968 0.007645
vt 0.012238 0.481832
vt 0.626038 0.002957
vt 0.631875 0.002943
vt 0.016316 0.485829
vt 0.710873 0.007412
vt 0.120750 0.484788
vt 0.707353 0.002755
vt 0.125531 0.476350
vt 0.714781 0.002736
vt 0.129518 0.480988
vt 0.627257 0.492438
vt 0.357223 0.239789
vt 0.630158 0.487735
vt 0.353234 0.243773
vt 0.633093 0.492423
vt 0.245239 0.235509
vt 0.708563 0.492235
vt 0.250058 0.243773
vt 0.712065 0.487553
vt 0.241337 0.240137
vt 0.716001 0.492216
vt 0.467003 0.488142
vt 0.357223 0.025001
vt 0.469933 0.492829
vt 0.464097 0.492844
vt 0.353234 0.021017
vt 0.385093 0.489420
vt 0.991564 0.487910
vt 0.249897 0.021017
vt 0.388508 0.493032
vt 0.245235 0.027430
vt 0.988166 0.491539
vt 0.240570 0.021017
vt 0.912030 0.002245
vt 0.231738 0.257906
vt 0.909124 0.006946
vt 0.235821 0.261928
vt 0.906172 0.002260
vt 0.234055 0.380507
vt 0.819571 0.002475
vt 0.825457 0.002461
vt 0.236935 0.373607
vt 0.822511 0.007230
vt 0.820778 0.491956
vt 0.136816 0.142754
vt 0.823718 0.487153
vt 0.133884 0.135935
vt 0.826692 0.491941
vt 0.137889 0.021017
vt 0.913248 0.491725
vt 0.907390 0.491740
vt 0.133884 0.025051
vt 0.910315 0.487040
vt 0.465796 0.003356
vt 0.010027 0.260116
vt 0.123365 0.258986
vt 0.383883 0.003560
vt 0.990355 0.002050
vt 0.628956 0.002950
vt 0.012278 0.485869
vt 0.125615 0.484740
vt 0.710869 0.002746
vt 0.630175 0.492430
vt 0.357223 0.243773
vt 0.712088 0.492226
vt 0.245240 0.243773
vt 0.467015 0.492837
vt 0.357223 0.021017
vt 0.245240 0.021017
vt 0.991573 0.491530
vt 0.385102 0.493040
vt 0.909108 0.002252
vt 0.235781 0.257866
vt 0.236975 0.377700
vt 0.822499 0.002468
vt 0.823718 0.491948
vt 0.133884 0.140022
vt 0.133884 0.021017
vt 0.910326 0.491733
vn -0.017818 -0.999837 0.002810
vn -0.382487 -0.923959 0.001765
vn -0.382487 -0.923959 -0.001765
vn -0.017818 -0.999837 -0.002810
vn -0.923959 -0.382487 0.001765
vn -0.999958 -0.008759 0.002832
vn -0.999958 -0.008759 -0.002832
vn -0.923959 -0.382487 -0.001765
vn -0.017732 -0.008649 0.999805
vn -0.011153 -0.381415 0.924337
vn 0.000000 -0.382683 0.923880
vn 0.000000 -0.008781 0.999961
vn -0.011153 -0.924337 0.381415
vn 0.000000 -0.999996 0.002853
vn 0.000000 -0.923880 0.382683
vn -0.924117 -0.005451 0.382070
vn -0.924117 0.005452 0.382070
vn -0.999958 0.008758 0.002832
vn -0.382070 -0.005451 0.924117
vn -0.017734 0.008613 0.999806
vn -0.382070 0.005452 0.924117
vn 0.000000 -0.999996 0.002853
vn 0.000000 -0.999996 0.002853
vn 0.000000 -0.999996 -0.002853
vn 0.000000 -0.999996 -0.002853
vn 0.000000 -0.999996 -0.002853
vn -0.000000 -0.011545 0.999933
vn -0.000000 -0.382683 0.923880
vn 0.011243 -0.381407 0.924339
vn 0.012403 -0.011686 0.999855
vn 0.000000 -0.923880 0.382684
vn 0.017976 -0.999835 0.002809
vn 0.011240 -0.924338 0.381409
vn 0.000000 -0.008866 0.999961
vn 0.007856 0.010911 0.999910
vn 0.000159 0.008762 0.999962
vn 0.025464 0.027051 0.999310
vn -0.923959 0.382488 0.001764
vn -0.923959 0.382488 -0.001765
vn -0.999958 0.008759 -0.002832
vn -0.382488 0.923959 0.001765
vn -0.017867 0.999836 0.002810
vn -0.017869 0.999836 -0.002817
vn -0.382487 0.923959 -0.001765
vn -0.011312 0.923966 0.382307
vn 0.009590 0.923042 0.384580
vn 0.008212 0.999962 0.002909
vn -0.011224 0.380197 0.924837
vn 0.004478 0.380538 0.924754
vn 0.368395 0.929665 0.002921
vn 0.368633 0.929570 -0.002940
vn 0.008222 0.999962 -0.002914
vn 0.681466 0.731846 0.002140
vn 0.681472 0.731841 -0.002141
vn 0.631159 0.671853 0.387623
vn 0.635910 0.667679 0.387071
vn 0.690474 0.723351 0.002969
vn 0.265372 0.282644 0.921787
vn 0.011662 0.005743 0.999916
vn 0.268595 0.280363 0.921549
vn -0.924117 0.005452 -0.382072
vn -0.924116 -0.005451 -0.382073
vn -0.382071 0.005452 -0.924117
vn -0.017738 0.008629 -0.999805
vn -0.017735 -0.008651 -0.999805
vn -0.382071 -0.005451 -0.924117
vn -0.011104 0.379985 -0.924926
vn 0.004556 0.380305 -0.924850
vn 0.000161 0.008775 -0.999961
vn -0.011206 0.923871 -0.382541
vn 0.009635 0.922934 -0.384838
vn 0.007812 0.010936 -0.999910
vn 0.000000 -0.008857 -0.999961
vn 0.000000 -0.008782 -0.999961
vn 0.025466 0.027054 -0.999310
vn 0.000000 -0.011544 -0.999933
vn 0.265186 0.282639 -0.921842
vn 0.268712 0.280317 -0.921530
vn 0.011689 0.005744 -0.999915
vn 0.631127 0.671873 -0.387641
vn 0.690448 0.723376 -0.002971
vn 0.636009 0.667598 -0.387047
vn -0.011153 -0.924337 -0.381415
vn 0.000000 -0.923879 -0.382684
vn -0.011153 -0.381416 -0.924336
vn 0.000000 -0.382684 -0.923879
vn 0.000000 -0.923879 -0.382684
vn 0.011238 -0.924338 -0.381410
vn 0.017978 -0.999835 -0.002809
vn 0.000000 -0.382684 -0.923879
vn 0.012501 -0.011682 -0.999854
vn 0.011241 -0.381406 -0.924339
vn 0.999853 -0.016878 0.002975
vn 0.923960 -0.382485 0.001764
vn 0.923960 -0.382485 -0.001765
vn 0.999853 -0.016887 -0.002974
vn 0.382485 -0.923960 0.001767
vn 0.382485 -0.923960 -0.001768
vn 0.394527 -0.011317 0.918815
vn 0.398224 0.003989 0.917280
vn 0.918973 -0.009351 0.394210
vn 0.999959 0.008523 0.003067
vn 0.918735 0.005877 0.394832
vn 0.918654 0.395056 0.002217
vn 0.918190 0.396134 -0.002247
vn 0.999959 0.008565 -0.003069
vn 0.400894 0.004038 -0.916116
vn 0.397076 -0.011180 -0.917718
vn 0.919785 0.006056 -0.392376
vn 0.919960 -0.009105 -0.391907
vn -0.887918 -0.325270 0.325270
vn -0.325270 -0.887918 0.325270
vn -0.325270 -0.325269 0.887919
vn 0.000000 -0.923880 0.382683
vn 0.000000 -0.382684 0.923880
vn -0.325299 0.887912 0.325259
vn -0.887912 0.325303 0.325254
vn -0.325290 0.325290 0.887904
vn 0.396876 0.827766 0.396601
vn 0.175506 0.332959 0.926464
vn -0.325256 0.325295 -0.887915
vn -0.887921 0.325292 -0.325241
vn -0.325272 0.887924 -0.325252
vn 0.174060 0.332737 -0.926817
vn 0.395071 0.828265 -0.397362
vn -0.325272 -0.887917 -0.325271
vn -0.887917 -0.325272 -0.325272
vn -0.325274 -0.325271 -0.887916
vn 0.000000 -0.923879 -0.382684
vn 0.000000 -0.382684 -0.923879
vn 0.325137 -0.325382 0.887926
vn 0.325090 -0.887931 0.325415
vn 0.887993 -0.325128 0.325207
vn 0.851860 0.367779 0.372926
vn 0.482471 0.208310 0.850781
vn 0.487406 0.205499 -0.848650
vn 0.854867 0.363456 -0.370272
vn 0.325033 -0.887942 -0.325441
vn 0.325086 -0.325339 -0.887960
vn 0.888005 -0.325071 -0.325231
s 1
g WallHP
usemtl initialShadingGroup
f 2/1/1 1/41/2 43/75/3 48/31/4
s 2
f 1/41/5 6/32/6 44/9/7 43/75/8
s 3
f 4/2/9 3/42/10 13/52/11 12/26/12
s 1
f 3/43/13 2/1/1 14/3/14 13/51/15
s 2
f 6/32/6 5/44/16 17/55/17 16/33/18
s 3
f 5/45/19 4/2/9 18/6/20 17/54/21
s 1
f 8/4/22 7/46/23 49/81/24 56/40/25
f 7/47/23 14/3/14 50/13/26 49/80/24
s 3
f 10/5/27 9/48/28 57/88/29 62/35/30
s 1
f 9/49/31 8/4/22 58/17/32 57/87/33
s 3
f 12/26/12 11/50/34 25/61/35 24/7/36
f 11/50/34 10/5/27 26/8/37 25/61/35
s 2
f 16/33/18 15/53/38 31/66/39 30/34/40
s 6
f 15/53/41 20/27/42 32/10/43 31/66/44
f 20/27/42 19/56/45 23/60/46 22/28/47
s 3
f 19/57/48 18/6/20 24/7/36 23/59/49
s 6
f 22/28/47 21/58/50 39/72/51 38/11/52
f 21/58/50 28/36/53 40/12/54 39/72/51
f 28/36/53 27/62/55 63/93/56 68/37/57
s 3
f 27/63/58 26/8/37 64/19/59 63/92/60
s 2
f 30/34/40 29/64/61 45/77/62 44/9/7
s 7
f 29/65/63 34/29/64 46/14/65 45/76/66
f 34/29/64 33/67/67 37/71/68 36/30/69
s 6
f 33/68/70 32/10/43 38/11/52 37/70/71
s 7
f 36/30/69 35/69/72 53/84/73 52/15/74
f 35/69/72 42/38/75 54/16/76 53/84/73
f 42/38/75 41/73/77 69/98/78 74/39/79
s 6
f 41/74/80 40/12/54 70/21/81 69/97/82
s 1
f 48/31/4 47/78/83 51/83/84 50/13/26
s 7
f 47/79/85 46/14/65 52/15/74 51/82/86
s 1
f 56/40/25 55/85/87 75/103/88 80/18/89
s 7
f 55/86/90 54/16/76 76/23/91 75/102/92
s 6
f 60/20/93 59/89/94 79/106/95 78/25/96
s 1
f 59/89/97 58/17/32 80/18/89 79/106/98
s 3
f 62/35/30 61/90/99 65/95/100 64/19/59
s 6
f 61/91/101 60/20/93 66/22/102 65/94/103
f 68/37/57 67/96/104 71/99/105 70/21/81
f 67/96/104 66/22/102 72/24/106 71/99/105
s 7
f 74/39/79 73/100/107 77/105/108 76/23/91
s 6
f 73/101/109 72/24/106 78/25/96 77/104/110
s 3
f 4/2/9 12/26/12 24/7/36 18/6/20
s 6
f 20/27/42 22/28/47 38/11/52 32/10/43
s 7
f 34/29/64 36/30/69 52/15/74 46/14/65
s 1
f 48/31/4 50/13/26 14/3/14 2/1/1
s 6
f 60/20/93 78/25/96 72/24/106 66/22/102
s 2
f 44/9/7 6/32/6 16/33/18 30/34/40
s 3
f 26/8/37 10/5/27 62/35/30 64/19/59
s 6
f 40/12/54 28/36/53 68/37/57 70/21/81
s 7
f 54/16/76 42/38/75 74/39/79 76/23/91
s 1
f 8/4/22 56/40/25 80/18/89 58/17/32
s 2
f 5/44/16 6/32/6 1/41/5 81/107/111
s 1
f 1/41/2 2/1/1 3/43/13 81/107/112
s 3
f 3/42/10 4/2/9 5/45/19 81/108/113
s 1
f 13/51/15 14/3/14 7/47/23 82/110/114
f 7/46/23 8/4/22 9/49/31 82/111/114
s 3
f 9/48/28 10/5/27 11/50/34 82/109/115
f 11/50/34 12/26/12 13/52/11 82/109/115
s 6
f 19/56/45 20/27/42 15/53/41 83/112/116
s 2
f 15/53/38 16/33/18 17/55/17 83/112/117
s 3
f 17/54/21 18/6/20 19/57/48 83/113/118
s 6
f 27/62/55 28/36/53 21/58/50 84/115/119
f 21/58/50 22/28/47 23/60/46 84/115/119
s 3
f 23/59/49 24/7/36 25/61/35 84/114/120
f 25/61/35 26/8/37 27/63/58 84/114/120
s 7
f 33/67/67 34/29/64 29/65/63 85/117/121
s 2
f 29/64/61 30/34/40 31/66/39 85/116/122
s 6
f 31/66/44 32/10/43 33/68/70 85/116/123
s 7
f 41/73/77 42/38/75 35/69/72 86/119/124
f 35/69/72 36/30/69 37/71/68 86/119/124
s 6
f 37/70/71 38/11/52 39/72/51 86/118/125
f 39/72/51 40/12/54 41/74/80 86/118/125
s 1
f 47/78/83 48/31/4 43/75/3 87/120/126
s 2
f 43/75/8 44/9/7 45/77/62 87/120/127
s 7
f 45/76/66 46/14/65 47/79/85 87/121/128
s 1
f 55/85/87 56/40/25 49/81/24 88/123/129
f 49/80/24 50/13/26 51/83/84 88/124/129
s 7
f 51/82/86 52/15/74 53/84/73 88/122/130
f 53/84/73 54/16/76 55/86/90 88/122/130
s 3
f 61/90/99 62/35/30 57/88/29 89/126/131
s 1
f 57/87/33 58/17/32 59/89/97 89/125/132
s 6
f 59/89/94 60/20/93 61/91/101 89/125/133
f 67/96/104 68/37/57 63/93/56 90/128/134
s 3
f 63/92/60 64/19/59 65/95/100 90/127/135
s 6
f 65/94/103 66/22/102 67/96/104 90/128/134
s 7
f 73/100/107 74/39/79 69/98/78 91/130/136
s 6
f 69/97/82 70/21/81 71/99/105 91/129/137
f 71/99/105 72/24/106 73/101/109 91/129/137
s 1
f 79/106/98 80/18/89 75/103/88 92/132/138
s 7
f 75/102/92 76/23/91 77/105/108 92/131/139
s 6
f 77/104/110 78/25/96 79/106/95 92/132/140
