# This file uses centimeters as units for non-parametric coordinates.

mtllib Wall_LP.mtl
g default
v -1.000000 0.000000 0.000000
v 0.000000 0.000000 0.000000
v -1.000000 1.000000 0.000000
v 0.000000 0.530819 0.000000
v -1.000000 1.000000 -3.000000
v 0.000000 0.530819 -3.000000
v -1.000000 0.000000 -3.000000
v 0.000000 0.000000 -3.000000
v -0.497959 0.000000 0.000000
v -0.497959 1.000000 0.000000
v -0.497959 1.000000 -3.000000
v -0.497959 0.000000 -3.000000
vt 0.465796 0.003356
vt 0.383883 0.003560
vt 0.710869 0.002746
vt 0.628956 0.002950
vt 0.245240 0.243773
vt 0.357223 0.243773
vt 0.991573 0.491530
vt 0.467015 0.492837
vt 0.235781 0.257866
vt 0.910326 0.491733
vt 0.133884 0.140022
vt 0.822499 0.002468
vt 0.245240 0.021017
vt 0.133884 0.021017
vt 0.712088 0.492226
vt 0.823718 0.491948
vt 0.630175 0.492430
vt 0.357223 0.021017
vt 0.125615 0.484740
vt 0.236975 0.377700
vt 0.123365 0.258986
vt 0.909108 0.002252
vt 0.010027 0.260116
vt 0.012278 0.485869
vt 0.385102 0.493040
vt 0.990355 0.002050
vn 0.000000 0.000000 1.000000
vn 0.000000 0.000000 1.000000
vn 0.000000 0.000000 1.000000
vn 0.000000 0.000000 1.000000
vn 0.000000 1.000000 0.000000
vn 0.424754 0.905309 0.000000
vn 0.424754 0.905309 0.000000
vn 0.000000 1.000000 0.000000
vn 0.000000 0.000000 -1.000000
vn 0.000000 0.000000 -1.000000
vn 0.000000 0.000000 -1.000000
vn 0.000000 0.000000 -1.000000
vn 0.000000 -1.000000 0.000000
vn 0.000000 -1.000000 0.000000
vn 0.000000 -1.000000 0.000000
vn 0.000000 -1.000000 0.000000
vn 1.000000 0.000000 0.000000
vn 1.000000 0.000000 0.000000
vn 1.000000 0.000000 0.000000
vn 1.000000 0.000000 0.000000
vn -1.000000 0.000000 0.000000
vn -1.000000 0.000000 0.000000
vn -1.000000 0.000000 0.000000
vn -1.000000 0.000000 0.000000
vn 0.000000 0.000000 1.000000
vn 0.000000 0.000000 1.000000
vn 0.685763 0.727825 0.000000
vn 0.685763 0.727825 0.000000
vn 0.000000 0.000000 -1.000000
vn 0.000000 0.000000 -1.000000
vn 0.000000 -1.000000 0.000000
vn 0.000000 -1.000000 0.000000
s 1
g Wall
usemtl initialShadingGroup
f 1/23/1 9/21/2 10/19/3 3/24/4
s 2
f 3/4/5 10/3/6 11/15/7 5/17/8
s 3
f 5/6/9 11/5/10 12/13/11 7/18/12
s 4
f 7/8/13 12/25/14 9/2/15 1/1/16
s off
f 2/22/17 8/10/18 6/16/19 4/12/20
f 7/8/21 1/1/22 3/4/23 5/17/24
s 1
f 10/19/3 9/21/2 2/9/25 4/20/26
s 2
f 11/15/7 10/3/6 4/12/27 6/16/28
s 3
f 12/13/11 11/5/10 6/11/29 8/14/30
s 4
f 9/26/15 12/7/14 8/10/31 2/22/32
