# This file uses centimeters as units for non-parametric coordinates.

mtllib InsideBend_LP.mtl
g default
v 1.563390 0.000000 -1.493670
v 0.934990 0.000000 -2.275254
v 1.563390 1.000000 -1.493670
v 0.939808 0.530819 -2.281799
v 3.000000 1.000000 -2.000576
v 3.000000 0.530819 -3.000576
v 3.000000 0.000000 -2.000576
v 3.000000 0.000000 -3.000576
v 1.245917 0.000000 -1.880644
v 1.245917 1.000000 -1.880644
v 3.000000 1.000000 -2.502617
v 3.000000 0.000000 -2.502617
v 1.000000 0.000000 0.000105
v 0.000000 0.000000 0.000000
v 1.000000 1.000000 0.000105
v 0.000000 0.530819 0.000000
v 0.497959 0.000000 0.000000
v 0.497959 1.000000 0.000000
v 2.178160 1.000000 -1.881259
v 2.178160 0.000000 -1.881259
v 2.014176 0.000000 -2.367987
v 1.853992 0.000000 -2.852545
v 1.854224 0.530819 -2.852748
v 2.014176 1.000000 -2.367987
v 1.160100 1.000000 -0.848035
v 1.160100 0.000000 -0.848035
v 0.711275 0.000000 -1.064839
v 0.252699 0.000000 -1.269818
v 0.252699 0.530819 -1.270344
v 0.711275 1.000000 -1.064839
v 1.044095 1.000000 -0.443626
v 1.044095 0.000000 -0.443626
v 0.552178 0.000000 -0.550409
v 0.063787 0.000000 -0.647645
v 0.063787 0.530819 -0.647645
v 0.552178 1.000000 -0.550409
v 1.334821 0.000000 -1.200603
v 1.334821 1.000000 -1.200603
v 0.947677 1.000000 -1.511148
v 0.556749 0.530819 -1.824338
v 0.555426 0.000000 -1.820776
v 0.947677 0.000000 -1.511148
v 1.844261 1.000000 -1.721787
v 1.844261 0.000000 -1.721787
v 1.602015 0.000000 -2.168374
v 1.370408 0.000000 -2.620906
v 1.379477 0.530819 -2.630166
v 1.602015 1.000000 -2.168374
v 2.565030 0.000000 -1.972251
v 2.565030 1.000000 -1.972251
v 2.475288 1.000000 -2.471858
v 2.387666 0.530819 -2.968452
v 2.387666 0.000000 -2.968452
v 2.475288 0.000000 -2.471858
v 2.777097 0.000000 -1.993694
v 2.777097 1.000000 -1.993694
v 2.730017 1.000000 -2.495307
v 2.683718 0.530819 -2.993186
v 2.683718 0.000000 -2.993186
v 2.730017 0.000000 -2.495307
v 2.365119 1.000000 -1.935083
v 2.365119 0.000000 -1.935083
v 2.236707 0.000000 -2.430022
v 2.111753 0.000000 -2.922622
v 2.111753 0.530819 -2.922622
v 2.236707 1.000000 -2.430022
v 2.004521 0.000000 -1.810217
v 2.004521 1.000000 -1.810217
v 1.801889 1.000000 -2.280211
v 1.612315 0.530819 -2.756880
v 1.604796 0.000000 -2.749951
v 1.801889 0.000000 -2.280211
v 1.697268 1.000000 -1.616135
v 1.697268 0.000000 -1.616135
v 1.416767 0.000000 -2.034990
v 1.148908 0.000000 -2.464729
v 1.155632 0.530819 -2.472623
v 1.416767 1.000000 -2.034990
v 1.442547 0.000000 -1.354946
v 1.442547 1.000000 -1.354946
v 1.089451 1.000000 -1.705837
v 0.739876 0.530819 -2.065512
v 0.737063 0.000000 -2.060385
v 1.089451 0.000000 -1.705837
v 1.240500 1.000000 -1.031354
v 1.240500 0.000000 -1.031354
v 0.821273 0.000000 -1.297203
v 0.391988 0.000000 -1.556916
v 0.391988 0.530819 -1.558870
v 0.821273 1.000000 -1.297203
v 1.094339 0.000000 -0.651680
v 1.094339 1.000000 -0.651680
v 0.619463 1.000000 -0.815282
v 0.142946 0.530819 -0.963663
v 0.142946 0.000000 -0.963663
v 0.619463 0.000000 -0.815282
v 1.011170 1.000000 -0.225574
v 1.011170 0.000000 -0.225574
v 0.511547 0.000000 -0.276581
v 0.015985 0.000000 -0.325389
v 0.015985 0.530819 -0.325389
v 0.511547 1.000000 -0.276581
vt 0.478237 0.510580
vt 0.400915 0.510772
vt 0.709572 0.510004
vt 0.632251 0.510196
vt 0.245240 0.970616
vt 0.357223 0.970616
vt 0.974541 0.971389
vt 0.479387 0.972622
vt 0.897848 0.971580
vt 0.133884 0.866865
vt 0.814944 0.509741
vt 0.245240 0.747860
vt 0.133884 0.747860
vt 0.710722 0.972046
vt 0.816095 0.971783
vt 0.633401 0.972238
vt 0.357223 0.747860
vt 0.896698 0.509538
vt 0.402066 0.972814
vt 0.973391 0.509347
vt 0.066859 0.146453
vt 0.180196 0.145324
vt 0.182447 0.371077
vt 0.069109 0.372207
vt 0.631309 0.012743
vt 0.709943 0.012548
vt 0.711113 0.482429
vt 0.632479 0.482625
vt 0.475852 0.483015
vt 0.397219 0.483211
vt 0.396049 0.013329
vt 0.474682 0.013133
vt 0.900244 0.012074
vt 0.901413 0.481955
vt 0.818273 0.482162
vt 0.817103 0.012281
vt 0.292612 0.144203
vt 0.293807 0.264037
vt 0.978238 0.011880
vt 0.979407 0.481761
vt 0.632826 0.741217
vt 0.478812 0.741601
vt 0.401491 0.741793
vt 0.973966 0.740368
vt 0.897273 0.740559
vt 0.815520 0.740762
vt 0.710147 0.741025
vt 0.631894 0.247684
vt 0.475267 0.248074
vt 0.396634 0.248270
vt 0.978822 0.246820
vt 0.900828 0.247015
vt 0.817688 0.247222
vt 0.710528 0.247488
vt 0.631602 0.130214
vt 0.474975 0.130604
vt 0.396341 0.130800
vt 0.978530 0.129350
vt 0.900536 0.129544
vt 0.817395 0.129751
vt 0.710235 0.130018
vt 0.475560 0.365545
vt 0.632187 0.365155
vt 0.710820 0.364959
vt 0.817980 0.364692
vt 0.901121 0.364485
vt 0.396926 0.365740
vt 0.979115 0.364291
vt 0.632538 0.625707
vt 0.478524 0.626090
vt 0.401203 0.626283
vt 0.973678 0.624857
vt 0.896985 0.625048
vt 0.815232 0.625252
vt 0.709860 0.625514
vt 0.479099 0.857111
vt 0.633113 0.856728
vt 0.710435 0.856535
vt 0.815807 0.856273
vt 0.897561 0.856069
vt 0.401778 0.857304
vt 0.974253 0.855878
vt 0.479243 0.914866
vt 0.633257 0.914483
vt 0.710579 0.914290
vt 0.815951 0.914028
vt 0.897704 0.913825
vt 0.401922 0.915059
vt 0.974397 0.913634
vt 0.632970 0.798972
vt 0.478956 0.799356
vt 0.401634 0.799548
vt 0.974110 0.798123
vt 0.897417 0.798314
vt 0.815663 0.798518
vt 0.710291 0.798780
vt 0.478668 0.683845
vt 0.632682 0.683462
vt 0.710003 0.683270
vt 0.815376 0.683007
vt 0.897129 0.682804
vt 0.401347 0.684038
vt 0.973822 0.682613
vt 0.632394 0.567951
vt 0.478381 0.568335
vt 0.401059 0.568527
vt 0.973534 0.567102
vt 0.896842 0.567293
vt 0.815088 0.567497
vt 0.709716 0.567759
vt 0.475706 0.424280
vt 0.632333 0.423890
vt 0.710966 0.423694
vt 0.818126 0.423427
vt 0.901267 0.423220
vt 0.397073 0.424476
vt 0.979261 0.423026
vt 0.632041 0.306419
vt 0.475413 0.306809
vt 0.396780 0.307005
vt 0.978969 0.305556
vt 0.900975 0.305750
vt 0.817834 0.305957
vt 0.710674 0.306224
vt 0.475121 0.189339
vt 0.631748 0.188949
vt 0.710381 0.188753
vt 0.817542 0.188487
vt 0.900682 0.188280
vt 0.396488 0.189535
vt 0.978676 0.188085
vt 0.631456 0.071479
vt 0.474828 0.071869
vt 0.396195 0.072064
vt 0.978384 0.070615
vt 0.900390 0.070809
vt 0.817249 0.071016
vt 0.710089 0.071283
vn 0.000000 1.000000 0.000000
vn 0.000000 1.000000 0.000000
vn -0.293870 0.883426 -0.364965
vn -0.300793 0.892178 -0.336961
vn 1.000000 0.000000 0.000000
vn 1.000000 0.000000 0.000000
vn 1.000000 0.000000 0.000000
vn 1.000000 0.000000 0.000000
vn 0.000000 -1.000000 0.000000
vn 0.000000 -1.000000 0.000000
vn 0.000000 -1.000000 0.000000
vn 0.000000 -1.000000 0.000000
vn -0.662711 -0.002979 -0.748869
vn -0.662711 -0.002979 -0.748869
vn -0.620853 -0.003805 -0.783918
vn -0.621910 -0.003785 -0.783080
vn 0.630441 0.000000 0.776237
vn 0.674955 0.000000 0.737859
vn 0.674955 0.000000 0.737859
vn 0.630441 0.000000 0.776237
vn -0.423103 0.732664 -0.533093
vn -0.454838 0.730412 -0.509529
vn 1.000000 0.000000 0.000000
vn 1.000000 0.000000 0.000000
vn 0.000000 -1.000000 0.000000
vn 0.000000 -1.000000 0.000000
vn -0.000208 0.000000 1.000000
vn -0.000208 0.000000 1.000000
vn -0.000149 0.000000 1.000000
vn -0.000118 0.000000 1.000000
vn 0.000000 1.000000 0.000000
vn 0.000000 1.000000 0.000000
vn -0.462949 0.885211 -0.045600
vn -0.464247 0.885412 -0.022807
vn 0.000000 -1.000000 0.000000
vn 0.000000 -1.000000 0.000000
vn 0.000000 -1.000000 0.000000
vn 0.000000 -1.000000 0.000000
vn -0.998796 0.000000 -0.049068
vn -0.998796 0.000000 -0.049068
vn -0.995185 0.000000 -0.098017
vn -0.995185 0.000000 -0.098017
vn 0.995099 0.000000 0.098887
vn 0.998777 0.000000 0.049435
vn 0.998777 0.000000 0.049435
vn 0.995099 0.000000 0.098887
vn 0.000000 0.000000 1.000000
vn 0.000000 0.000000 1.000000
vn -0.682458 0.727828 -0.067221
vn -0.685374 0.727413 -0.033670
vn 0.000000 -1.000000 0.000000
vn 0.000000 -1.000000 0.000000
vn 0.030859 0.000000 0.999524
vn 0.030859 0.000000 0.999524
vn 0.064983 0.000000 0.997886
vn 0.064983 0.000000 0.997886
vn 0.000000 -1.000000 0.000000
vn 0.000000 -1.000000 0.000000
vn 0.000000 -1.000000 0.000000
vn 0.000000 -1.000000 0.000000
vn 0.000000 -1.000000 0.000000
vn 0.000000 -1.000000 0.000000
vn -0.052389 0.000000 -0.998627
vn -0.023361 0.000000 -0.999727
vn -0.023361 0.000000 -0.999727
vn -0.052389 0.000000 -0.998627
vn -0.011504 0.888460 -0.458810
vn -0.017182 0.728088 -0.685268
vn -0.038179 0.729215 -0.683219
vn -0.025088 0.888821 -0.457567
vn 0.000000 1.000000 0.000000
vn 0.000000 1.000000 0.000000
vn 0.754032 0.000000 0.656837
vn 0.754032 0.000000 0.656837
vn 0.788533 0.000000 0.614992
vn 0.788533 0.000000 0.614992
vn 0.000000 -1.000000 0.000000
vn 0.000000 -1.000000 0.000000
vn 0.000000 -1.000000 0.000000
vn 0.000000 -1.000000 0.000000
vn 0.000000 -1.000000 0.000000
vn 0.000000 -1.000000 0.000000
vn -0.766900 -0.002009 -0.641764
vn -0.734913 -0.002173 -0.678158
vn -0.734913 -0.002173 -0.678158
vn -0.767324 -0.002007 -0.641256
vn -0.365836 0.868920 -0.333381
vn -0.506551 0.728231 -0.461612
vn -0.527733 0.728437 -0.436896
vn -0.367711 0.879778 -0.301295
vn 0.000000 1.000000 0.000000
vn 0.000000 1.000000 0.000000
vn 0.933237 0.000000 0.359263
vn 0.961235 0.000000 0.275729
vn 0.961235 0.000000 0.275729
vn 0.933237 0.000000 0.359263
vn 0.000000 -1.000000 0.000000
vn 0.000000 -1.000000 0.000000
vn 0.000000 -1.000000 0.000000
vn 0.000000 -1.000000 0.000000
vn 0.000000 -1.000000 0.000000
vn 0.000000 -1.000000 0.000000
vn -0.956899 -0.000084 -0.290421
vn -0.922266 -0.000590 -0.386556
vn -0.922290 -0.000589 -0.386499
vn -0.956899 -0.000084 -0.290421
vn -0.630270 0.730025 -0.264240
vn -0.654647 0.728867 -0.200474
vn -0.449560 0.882593 -0.137570
vn -0.435009 0.881881 -0.181805
vn 0.000000 1.000000 0.000000
vn 0.000000 1.000000 0.000000
vn 0.896010 0.000000 0.444034
vn 0.896010 0.000000 0.444034
vn 0.000000 1.000000 0.000000
vn -0.417063 0.880687 -0.224608
vn -0.600967 0.729983 -0.325521
vn -0.876480 -0.001346 -0.481436
vn -0.876583 -0.001345 -0.481249
vn 0.000000 -1.000000 0.000000
vn 0.000000 -1.000000 0.000000
vn 0.000000 -1.000000 0.000000
vn 0.327212 0.000000 0.944951
vn 0.430974 0.000000 0.902364
vn 0.430974 0.000000 0.902364
vn 0.327212 0.000000 0.944951
vn 0.000000 -1.000000 0.000000
vn 0.000000 -1.000000 0.000000
vn 0.000000 -1.000000 0.000000
vn 0.000000 -1.000000 0.000000
vn 0.000000 -1.000000 0.000000
vn 0.000000 -1.000000 0.000000
vn -0.427677 -0.004681 -0.903920
vn -0.318706 -0.001806 -0.947852
vn -0.318745 -0.001807 -0.947839
vn -0.428911 -0.004708 -0.903334
vn -0.216398 0.736550 -0.640832
vn -0.289427 0.737074 -0.610699
vn -0.196876 0.889904 -0.411474
vn -0.145477 0.890927 -0.430216
vn 0.000000 1.000000 0.000000
vn 0.000000 1.000000 0.000000
vn 0.228953 0.000000 0.973438
vn 0.228953 0.000000 0.973438
vn 0.000000 1.000000 0.000000
vn -0.097614 0.891011 -0.443364
vn -0.146833 0.734487 -0.662547
vn -0.212106 -0.000062 -0.977247
vn -0.212106 -0.000062 -0.977247
vn 0.000000 -1.000000 0.000000
vn 0.000000 -1.000000 0.000000
vn 0.000000 -1.000000 0.000000
vn 0.140850 0.000000 0.990031
vn 0.140850 0.000000 0.990031
vn 0.000000 1.000000 0.000000
vn -0.057338 0.889951 -0.452437
vn -0.086884 0.731742 -0.676022
vn -0.122442 0.000000 -0.992476
vn -0.122442 0.000000 -0.992476
vn 0.000000 -1.000000 0.000000
vn 0.000000 -1.000000 0.000000
vn 0.000000 -1.000000 0.000000
vn 0.534047 0.000000 0.845455
vn 0.534047 0.000000 0.845455
vn 0.000000 1.000000 0.000000
vn -0.246951 0.887105 -0.389949
vn -0.358996 0.735571 -0.574506
vn -0.528682 -0.005268 -0.848804
vn -0.530126 -0.005250 -0.847902
vn 0.000000 -1.000000 0.000000
vn 0.000000 -1.000000 0.000000
vn 0.000000 -1.000000 0.000000
vn 0.848231 0.000000 0.529626
vn 0.848231 0.000000 0.529626
vn 0.000000 1.000000 0.000000
vn -0.394892 0.879787 -0.264642
vn -0.567416 0.728791 -0.383280
vn -0.824490 -0.001762 -0.565874
vn -0.824725 -0.001761 -0.565531
vn 0.000000 -1.000000 0.000000
vn 0.000000 -1.000000 0.000000
vn 0.000000 -1.000000 0.000000
vn 0.981479 0.000000 0.191569
vn 0.981479 0.000000 0.191569
vn 0.000000 1.000000 0.000000
vn -0.458335 0.884059 -0.091482
vn -0.672316 0.728004 -0.134170
vn -0.980785 0.000000 -0.195090
vn -0.980785 0.000000 -0.195090
vn 0.000000 -1.000000 0.000000
vn 0.000000 -1.000000 0.000000
vn 0.000000 -1.000000 0.000000
s 1
g InsideBend
usemtl initialShadingGroup
f 3/4/1 73/104/2 78/110/3 10/3/4
s 2
f 5/6/5 7/17/6 12/12/7 11/5/8
s 3
f 74/105/9 1/1/10 9/2/11 75/106/12
s 4
f 2/18/13 4/11/14 77/109/15 76/108/16
s 5
f 73/104/17 3/4/18 1/1/19 74/105/20
s 1
f 77/109/21 4/11/22 10/3/4 78/110/3
s 2
f 12/12/7 8/13/23 6/10/24 11/5/8
s 3
f 9/20/11 2/18/25 76/108/26 75/107/12
s 6
f 13/21/27 15/24/28 18/23/29 17/22/30
s 7
f 15/25/31 97/132/32 102/138/33 18/26/34
s 8
f 98/133/35 13/32/36 17/31/37 99/134/38
s 9
f 14/33/39 16/36/40 101/137/41 100/136/42
s 10
f 97/132/43 15/25/44 13/32/45 98/133/46
s 6
f 18/23/29 16/38/47 14/37/48 17/22/30
s 7
f 101/137/49 16/36/50 18/26/34 102/138/33
s 8
f 17/39/37 14/33/51 100/136/52 99/135/38
s 5
f 7/8/53 5/16/54 56/84/55 55/83/56
s 3
f 7/8/57 55/83/58 60/88/59 12/19/60
f 59/87/61 8/9/62 12/7/60 60/89/59
s 4
f 58/86/63 6/15/64 8/9/65 59/87/66
s 1
f 11/14/67 6/15/68 58/86/69 57/85/70
f 56/84/71 5/16/72 11/14/67 57/85/70
s 10
f 1/29/73 3/28/74 80/112/75 79/111/76
s 8
f 1/29/77 79/111/78 84/116/79 9/30/80
f 83/115/81 2/34/82 9/40/80 84/117/79
s 9
f 82/114/83 4/35/84 2/34/85 83/115/86
s 7
f 10/27/87 4/35/88 82/114/89 81/113/90
f 80/112/91 3/28/92 10/27/87 81/113/90
s 10
f 25/48/93 92/126/94 91/125/95 26/49/96
s 8
f 26/49/97 91/125/98 96/130/99 27/50/100
f 95/129/101 28/52/102 27/51/100 96/131/99
s 9
f 94/128/103 29/53/104 28/52/105 95/129/106
s 7
f 29/53/107 94/128/108 93/127/109 30/54/110
f 92/126/111 25/48/112 30/54/110 93/127/109
s 10
f 85/118/113 25/48/93 26/49/96 86/119/114
s 7
f 25/48/112 85/118/115 90/124/116 30/54/110
f 89/123/117 29/53/107 30/54/110 90/124/116
s 9
f 29/53/104 89/123/118 88/122/119 28/52/105
s 8
f 28/52/102 88/122/120 87/121/121 27/51/100
f 86/119/122 26/49/97 27/50/100 87/120/121
s 5
f 19/41/123 68/98/124 67/97/125 20/42/126
s 3
f 20/42/127 67/97/128 72/102/129 21/43/130
f 71/101/131 22/45/132 21/44/130 72/103/129
s 4
f 70/100/133 23/46/134 22/45/135 71/101/136
s 1
f 23/46/137 70/100/138 69/99/139 24/47/140
f 68/98/141 19/41/142 24/47/140 69/99/139
s 5
f 61/90/143 19/41/123 20/42/126 62/91/144
s 1
f 19/41/142 61/90/145 66/96/146 24/47/140
f 65/95/147 23/46/137 24/47/140 66/96/146
s 4
f 23/46/134 65/95/148 64/94/149 22/45/135
s 3
f 22/45/132 64/94/150 63/93/151 21/44/130
f 62/91/152 20/42/127 21/43/130 63/92/151
s 5
f 56/84/55 50/77/153 49/76/154 55/83/56
s 1
f 50/77/155 56/84/71 57/85/70 51/78/156
f 58/86/69 52/79/157 51/78/156 57/85/70
s 4
f 52/79/158 58/86/63 59/87/66 53/80/159
s 3
f 53/80/160 59/87/61 60/89/59 54/82/161
f 55/83/58 49/76/162 54/81/161 60/88/59
s 5
f 50/77/153 61/90/143 62/91/144 49/76/154
s 3
f 49/76/162 62/91/152 63/92/151 54/81/161
f 64/94/150 53/80/160 54/82/161 63/93/151
s 4
f 65/95/148 52/79/158 53/80/159 64/94/149
s 1
f 52/79/157 65/95/147 66/96/146 51/78/156
f 61/90/145 50/77/155 51/78/156 66/96/146
s 5
f 68/98/124 43/69/163 44/70/164 67/97/125
s 1
f 43/69/165 68/98/141 69/99/139 48/75/166
f 70/100/138 47/74/167 48/75/166 69/99/139
s 4
f 47/74/168 70/100/133 71/101/136 46/73/169
s 3
f 46/73/170 71/101/131 72/103/129 45/72/171
f 67/97/128 44/70/172 45/71/171 72/102/129
s 5
f 43/69/163 73/104/17 74/105/20 44/70/164
s 3
f 44/70/172 74/105/9 75/106/12 45/71/171
f 76/108/26 46/73/170 45/72/171 75/107/12
s 4
f 77/109/15 47/74/168 46/73/169 76/108/16
s 1
f 47/74/167 77/109/21 78/110/3 48/75/166
f 73/104/2 43/69/165 48/75/166 78/110/3
s 10
f 80/112/75 38/63/173 37/62/174 79/111/76
s 7
f 38/63/175 80/112/91 81/113/90 39/64/176
f 82/114/89 40/65/177 39/64/176 81/113/90
s 9
f 40/65/178 82/114/83 83/115/86 41/66/179
s 8
f 41/66/180 83/115/81 84/117/79 42/68/181
f 79/111/78 37/62/182 42/67/181 84/116/79
s 10
f 38/63/173 85/118/113 86/119/114 37/62/174
s 8
f 37/62/182 86/119/122 87/120/121 42/67/181
f 88/122/120 41/66/180 42/68/181 87/121/121
s 9
f 89/123/118 40/65/178 41/66/179 88/122/119
s 7
f 40/65/177 89/123/117 90/124/116 39/64/176
f 85/118/115 38/63/175 39/64/176 90/124/116
s 10
f 92/126/94 31/55/183 32/56/184 91/125/95
s 7
f 31/55/185 92/126/111 93/127/109 36/61/186
f 94/128/108 35/60/187 36/61/186 93/127/109
s 9
f 35/60/188 94/128/103 95/129/106 34/59/189
s 8
f 34/59/190 95/129/101 96/131/99 33/58/191
f 91/125/98 32/56/192 33/57/191 96/130/99
s 10
f 31/55/183 97/132/43 98/133/46 32/56/184
s 8
f 32/56/192 98/133/35 99/134/38 33/57/191
f 100/136/52 34/59/190 33/58/191 99/135/38
s 9
f 101/137/41 35/60/188 34/59/189 100/136/42
s 7
f 35/60/187 101/137/49 102/138/33 36/61/186
f 97/132/32 31/55/185 36/61/186 102/138/33
